<svg width="37" height="37" viewBox="0 0 37 37" fill="none" xmlns="http://www.w3.org/2000/svg">
<path d="M18.4999 31.0799C11.5439 31.0799 5.91992 25.4559 5.91992 18.4999C5.91992 11.5439 11.5439 5.91992 18.4999 5.91992C25.4559 5.91992 31.0799 11.5439 31.0799 18.4999C31.0799 25.4559 25.4559 31.0799 18.4999 31.0799ZM18.4999 7.39992C12.3579 7.39992 7.39992 12.3579 7.39992 18.4999C7.39992 24.6419 12.3579 29.5999 18.4999 29.5999C24.6419 29.5999 29.5999 24.6419 29.5999 18.4999C29.5999 12.3579 24.6419 7.39992 18.4999 7.39992Z" fill="#000000"/>
<path d="M11.8401 17.7598H25.1601V19.2398H11.8401V17.7598Z" fill="#000000"/>
<path d="M17.76 11.8398H19.24V25.1598H17.76V11.8398Z" fill="#000000"/>
</svg>
